# xmcd
#
# Track frame offsets:
#	150
#	11898
#	29043
#	42283
#	61563
#	81479
#	97069
#	110774
#	128108
#	145276
#	158948
#	167708
#	182495
#	194831
#	213962
#	222449
#	237820
#	246089
#
# Disc length: 3469 seconds
#
# Revision: 2
# Processed by: cddbd v1.5.2PL0 Copyright (c) Steve Scherf et al.
# Submitted via: audiograbber 1.83.01
#
DISCID=0d0d8b12
DTITLE=Various Artist - Greatest Ever Country Rock - 2
DYEAR=2013
DGENRE=Country
TTITLE0=Jerry Lee Lewis - What's Made Milwaukee Famous
TTITLE1=Charlie Pickett - Marlboro Country
TTITLE2=Michael Nesmith and The Second National Band - Lazy Lady
TTITLE3=Hank Williams III - 3 Shades Of Black
TTITLE4=Old 57's - Big Brown Eyes
TTITLE5=Kurt Nilsen - Lost Highway
TTITLE6=Flying Burrito Brothers - Christine's Tune
TTITLE7=John Mellancamp - Paper In Fire
TTITLE8=Jim Croce - Operator (That's Not the Way it Feels)
TTITLE9=Rick Nelson - She Belongs To Me
TTITLE10=Scott Walker - The Lady Came From Baltimore
TTITLE11=Sawyer Brown - Thank God For You
TTITLE12=Pure Prairie League - Tears
TTITLE13=Lydia Loveless - Can't Change Me
TTITLE14=Wayne Hancock - Driving My Young Life Away
TTITLE15=Bottle Rockets - The Long Way
TTITLE16=Jon Langford - Living A Lie
TTITLE17=Devil in a Woodpile - A Long Way From Home
EXTD=
EXTT0=
EXTT1=
EXTT2=
EXTT3=
EXTT4=
EXTT5=
EXTT6=
EXTT7=
EXTT8=
EXTT9=
EXTT10=
EXTT11=
EXTT12=
EXTT13=
EXTT14=
EXTT15=
EXTT16=
EXTT17=
PLAYORDER=
